<svg xmlns="http://www.w3.org/2000/svg" width="36" height="36" viewBox="0 0 36 36">
    <g fill="none" fill-rule="evenodd">
        <circle cx="18" cy="18" r="18" fill="red"/>
        <path fill="#FFF" fill-rule="nonzero" d="M24 21.21c0 1.308-.427 2.436-1.28 3.381-.853.946-1.961 1.53-3.324 1.752v2.246a.4.4 0 0 1-.116.295.401.401 0 0 1-.296.116h-1.736a.396.396 0 0 1-.29-.122.394.394 0 0 1-.122-.289v-2.246a8.12 8.12 0 0 1-1.64-.398 8.645 8.645 0 0 1-1.305-.57 8.66 8.66 0 0 1-.952-.617 7.34 7.34 0 0 1-.598-.481 3.268 3.268 0 0 1-.225-.231c-.146-.18-.154-.355-.026-.526l1.325-1.733c.06-.086.159-.137.296-.154a.32.32 0 0 1 .309.115l.025.026c.97.847 2.011 1.382 3.126 1.604a4.5 4.5 0 0 0 .951.103c.695 0 1.306-.184 1.833-.552.527-.368.791-.89.791-1.566a1.3 1.3 0 0 0-.193-.68 2.408 2.408 0 0 0-.43-.539c-.16-.145-.41-.306-.753-.481a17.18 17.18 0 0 0-.849-.411 26.83 26.83 0 0 0-1.029-.417c-.334-.137-.598-.244-.79-.321-.194-.077-.457-.19-.792-.34a9.367 9.367 0 0 1-.804-.398 13.25 13.25 0 0 1-.726-.456 4.53 4.53 0 0 1-.688-.545 7.99 7.99 0 0 1-.56-.63 3.142 3.142 0 0 1-.456-.743 5.132 5.132 0 0 1-.27-.854 4.451 4.451 0 0 1-.11-1.001c0-1.18.42-2.216 1.26-3.106.84-.89 1.934-1.463 3.28-1.72v-2.31c0-.112.041-.208.122-.29a.396.396 0 0 1 .29-.121h1.736c.12 0 .219.039.296.116a.4.4 0 0 1 .116.295V8.67c.488.051.962.15 1.42.295.46.145.833.289 1.12.43.287.141.56.301.816.481.258.18.425.304.502.372.077.069.142.129.193.18.146.154.167.317.064.488L22.47 12.79c-.07.128-.168.196-.296.205a.41.41 0 0 1-.348-.09 2.642 2.642 0 0 0-.186-.154 7.026 7.026 0 0 0-.502-.34 6.642 6.642 0 0 0-.752-.41 5.752 5.752 0 0 0-.958-.334 4.3 4.3 0 0 0-1.1-.148c-.814 0-1.479.184-1.993.552-.515.368-.772.843-.772 1.425 0 .222.036.427.11.616.072.188.199.365.379.532.18.167.35.308.508.424.158.115.398.248.72.398.322.15.58.265.778.346.197.082.497.2.9.353.455.171.802.306 1.042.404.24.099.566.249.978.45.411.2.735.383.97.545.236.163.502.377.798.642.296.265.523.537.682.815.158.278.293.605.405.982.111.376.167.778.167 1.206z"/>
    </g>
</svg>
